<svg width="24" height="24" viewBox="0 0 24 24" fill="none" xmlns="http://www.w3.org/2000/svg">
<path fill-rule="evenodd" clip-rule="evenodd" d="M14.7895 17.8942C14.1135 17.8942 13.5655 18.4422 13.5655 19.1182C13.5655 19.7943 14.1135 20.3423 14.7895 20.3423C15.4655 20.3423 16.0135 19.7943 16.0135 19.1182C16.0135 18.4422 15.4655 17.8942 14.7895 17.8942ZM14.7895 18.5062C15.1275 18.5062 15.4015 18.7802 15.4015 19.1182C15.4015 19.4563 15.1275 19.7303 14.7895 19.7303C14.4515 19.7303 14.1775 19.4563 14.1775 19.1182C14.1775 18.7802 14.4515 18.5062 14.7895 18.5062Z" fill="#ffffff"/>
<path fill-rule="evenodd" clip-rule="evenodd" d="M8.82236 17.8942C8.14635 17.8942 7.59834 18.4422 7.59834 19.1182C7.59834 19.7943 8.14635 20.3423 8.82236 20.3423C9.49837 20.3423 10.0464 19.7943 10.0464 19.1182C10.0464 18.4422 9.49837 17.8942 8.82236 17.8942ZM8.82236 18.5062C9.16037 18.5062 9.43437 18.7802 9.43437 19.1182C9.43437 19.4563 9.16037 19.7303 8.82236 19.7303C8.48436 19.7303 8.21035 19.4563 8.21035 19.1182C8.21035 18.7802 8.48436 18.5062 8.82236 18.5062Z" fill="#ffffff"/>
<circle cx="14.7895" cy="19.1187" r="0.306006" fill="#ffffff"/>
<circle cx="8.82236" cy="19.1187" r="0.306006" fill="#ffffff"/>
<path d="M6.48837 15.9964H3.87978C3.66485 15.9964 3.49062 15.8222 3.49062 15.6073C3.49062 15.3923 3.66485 15.2181 3.87978 15.2181H5.94689L6.48837 15.9964Z" fill="#ffffff"/>
<path d="M5.18894 14.1285H2.63447C2.41954 14.1285 2.24531 13.9542 2.24531 13.7393C2.24531 13.5244 2.41954 13.3501 2.63447 13.3501H4.64746L5.18894 14.1285Z" fill="#ffffff"/>
<path d="M3.88951 12.2605H1.38916C1.17423 12.2605 1 12.0863 1 11.8713C1 11.6564 1.17423 11.4822 1.38916 11.4822H3.34803L3.88951 12.2605Z" fill="#ffffff"/>
<path d="M9.03926 9.1134C9.48268 9.11342 9.89812 9.33036 10.1514 9.69434L10.4347 10.1021L8.12976 16.6856C7.93404 16.5787 7.75734 16.4369 7.60934 16.2649L3.71897 10.6724H2.6345C2.46258 10.6724 2.32314 10.5331 2.32312 10.3612V9.42718C2.32312 9.25524 2.46256 9.11579 2.6345 9.11579H3.03345C3.04415 9.11427 3.05516 9.11341 3.06647 9.1134H9.03926Z" fill="#ffffff"/>
<path d="M15.1016 16.8108C14.9682 16.8572 14.829 16.8887 14.6863 16.9039H8.82733C8.58071 16.8777 8.34407 16.8028 8.13 16.686L10.4349 10.1024L15.1016 16.8108Z" fill="#767A7F"/>
<path d="M22.7739 4.71051C22.9514 4.71054 23.0595 4.90604 22.9651 5.05641L16.0311 16.0997C15.7213 16.5535 15.2286 16.846 14.6864 16.9037H8.82744C8.59813 16.8793 8.37748 16.8128 8.17554 16.7097L15.3112 5.34493C15.5591 4.95018 15.9925 4.71051 16.4586 4.71051H22.7739Z" fill="#ffffff"/>
</svg>
